<svg xmlns="http://www.w3.org/2000/svg" version="1.1" xmlns:xlink="http://www.w3.org/1999/xlink" xmlns:svgjs="http://svgjs.dev/svgjs" width="1000" height="623" viewBox="0 0 1000 623"><g transform="matrix(1,0,0,1,-0.6060606060606233,0.2522267206477409)"><svg viewBox="0 0 396 247" data-background-color="#ffffff" preserveAspectRatio="xMidYMid meet" height="623" width="1000" xmlns="http://www.w3.org/2000/svg" xmlns:xlink="http://www.w3.org/1999/xlink"><g id="tight-bounds" transform="matrix(1,0,0,1,0.2400000000000091,-0.09999999999999432)"><svg viewBox="0 0 395.52 247.2" height="247.2" width="395.52"><g><svg></svg></g><g><svg viewBox="0 0 395.52 247.2" height="247.2" width="395.52"><g transform="matrix(1,0,0,1,75.54432,63.56692100502512)"><svg viewBox="0 0 244.43135999999998 120.06615798994974" height="120.06615798994974" width="244.43135999999998"><g><svg viewBox="0 0 244.43135999999998 120.06615798994974" height="120.06615798994974" width="244.43135999999998"><g><svg viewBox="0 0 244.43135999999998 120.06615798994974" height="120.06615798994974" width="244.43135999999998"><g><svg viewBox="0 0 244.43135999999998 120.06615798994974" height="120.06615798994974" width="244.43135999999998"><g id="textblocktransform"><svg viewBox="0 0 244.43135999999998 120.06615798994974" height="120.06615798994974" width="244.43135999999998" id="textblock"><g><svg viewBox="0 0 244.43135999999998 120.06615798994974" height="120.06615798994974" width="244.43135999999998"><g transform="matrix(1,0,0,1,0,0)"><svg width="244.43135999999998" viewBox="3 -37.7 77.73 38.190000000000005" height="120.06615798994974" data-palette-color="#475569"><path d="M37.99-35.01L37.99-10.01Q37.99-7.84 37.17-5.92 36.35-4 34.92-2.58 33.5-1.15 31.58-0.33 29.66 0.49 27.49 0.49L27.49 0.49Q25.54 0.49 23.74-0.2 21.95-0.88 20.51-2.2L20.51-2.2Q19.07-0.88 17.26-0.2 15.45 0.49 13.5 0.49L13.5 0.49Q11.33 0.49 9.41-0.33 7.5-1.15 6.07-2.58 4.64-4 3.82-5.92 3-7.84 3-10.01L3-10.01 3-35.01 10.01-35.01 10.01-10.01Q10.01-9.28 10.28-8.63 10.55-7.98 11.02-7.51 11.5-7.03 12.13-6.76 12.77-6.49 13.5-6.49L13.5-6.49Q14.23-6.49 14.87-6.76 15.5-7.03 15.98-7.51 16.46-7.98 16.72-8.63 16.99-9.28 16.99-10.01L16.99-10.01 16.99-35.01 24-35.01 24-10.01Q24-9.28 24.27-8.63 24.54-7.98 25.01-7.51 25.49-7.03 26.12-6.76 26.76-6.49 27.49-6.49L27.49-6.49Q28.22-6.49 28.86-6.76 29.49-7.03 29.97-7.51 30.44-7.98 30.73-8.63 31.01-9.28 31.01-10.01L31.01-10.01 31.01-35.01 37.99-35.01ZM67.94-10.5L67.94-10.5Q67.94-8.33 67.11-6.42 66.28-4.52 64.85-3.09 63.43-1.66 61.52-0.83 59.62 0 57.44 0L57.44 0 43.43 0 43.43-7.01 57.44-7.01Q58.18-7.01 58.81-7.28 59.45-7.54 59.92-8.02 60.4-8.5 60.67-9.13 60.94-9.77 60.94-10.5L60.94-10.5Q60.94-11.23 60.67-11.87 60.4-12.5 59.92-12.98 59.45-13.45 58.81-13.72 58.18-13.99 57.44-13.99L57.44-13.99 47.9-13.99 47.9-21 57.44-21Q58.18-21 58.81-21.26 59.45-21.53 59.92-22.01 60.4-22.49 60.67-23.13 60.94-23.78 60.94-24.51L60.94-24.51Q60.94-25.24 60.67-25.88 60.4-26.51 59.92-26.99 59.45-27.47 58.81-27.73 58.18-28 57.44-28L57.44-28 43.43-28 43.43-35.01 57.44-35.01Q59.62-35.01 61.52-34.18 63.43-33.35 64.85-31.92 66.28-30.49 67.11-28.59 67.94-26.68 67.94-24.51L67.94-24.51Q67.94-22.58 67.23-20.76 66.53-18.95 65.23-17.5L65.23-17.5Q66.53-16.06 67.23-14.25 67.94-12.43 67.94-10.5ZM80.73-33.25L80.73-33.25Q80.73-32.32 80.38-31.52 80.02-30.71 79.41-30.11 78.8-29.52 77.99-29.16 77.17-28.81 76.24-28.81L76.24-28.81Q75.31-28.81 74.49-29.16 73.68-29.52 73.08-30.11 72.48-30.71 72.13-31.52 71.77-32.32 71.77-33.25L71.77-33.25Q71.77-34.16 72.13-34.97 72.48-35.79 73.08-36.39 73.68-36.99 74.49-37.34 75.31-37.7 76.24-37.7L76.24-37.7Q77.17-37.7 77.99-37.34 78.8-36.99 79.41-36.39 80.02-35.79 80.38-34.97 80.73-34.16 80.73-33.25ZM79.58-26.15L79.58 0 72.87 0 72.87-26.15 79.58-26.15Z" opacity="1" transform="matrix(1,0,0,1,0,0)" fill="#475569" class="wordmark-text-0" data-fill-palette-color="primary" id="text-0"></path></svg></g></svg></g></svg></g></svg></g></svg></g></svg></g></svg></g><path d="M156.282 57.567L156.282 9.678 384.127 9.678 384.127 237.522 156.282 237.522 156.282 189.633 167.11 189.633 167.11 226.694 373.299 226.694 373.299 20.506 167.11 20.506 167.11 57.567Z" fill="#475569" stroke="transparent" data-fill-palette-color="primary"></path></svg></g><defs></defs></svg><rect width="395.52" height="247.2" fill="none" stroke="none" visibility="hidden"></rect></g></svg></g></svg>